<?xml version="1.0" standalone="no"?>
<!DOCTYPE svg PUBLIC "-//W3C//DTD SVG 20010904//EN"
 "http://www.w3.org/TR/2001/REC-SVG-20010904/DTD/svg10.dtd">
<svg version="1.0" xmlns="http://www.w3.org/2000/svg"
 width="1280.000000pt" height="1280.000000pt" viewBox="0 0 1280.000000 1280.000000"
 preserveAspectRatio="xMidYMid meet">

<g transform="translate(0.000000,1280.000000) scale(0.100000,-0.100000)"
fill="#000000" stroke="none">
<path d="M6150 11719 c-678 -58 -1302 -257 -1755 -562 -144 -97 -355 -269
-355 -291 0 -7 170 77 251 124 122 73 400 210 493 245 520 192 1192 248 1751
144 519 -96 992 -304 1413 -622 90 -67 348 -292 383 -333 9 -11 46 -53 84 -94
305 -337 542 -732 699 -1164 85 -234 150 -522 177 -784 17 -166 6 -562 -20
-722 -104 -645 -375 -1183 -821 -1631 -218 -220 -404 -360 -665 -503 -337
-184 -726 -302 -1105 -336 -127 -11 -419 -13 -520 -4 l-66 7 1 956 c0 1039 -2
1080 -52 1174 -42 77 -132 169 -199 201 -58 29 -143 39 -191 23 -27 -10 -38
-72 -55 -312 -13 -208 -16 -1613 -3 -2307 l7 -438 37 -11 c518 -154 1128 -136
1750 51 428 130 898 364 1231 614 234 176 432 364 599 570 488 601 761 1257
837 2010 29 293 12 719 -41 1005 -128 689 -423 1296 -875 1801 -572 639 -1394
1073 -2215 1169 -261 31 -559 39 -775 20z"/>
<path d="M5570 11294 c-715 -78 -1373 -387 -1884 -884 -526 -513 -829 -1108
-931 -1830 -26 -178 -31 -605 -11 -810 67 -678 304 -1338 670 -1863 141 -202
361 -443 521 -571 344 -276 746 -540 985 -647 164 -73 406 -149 478 -149 l23
0 -1 1468 c-2 1061 1 1480 9 1516 22 92 67 153 145 194 45 24 62 27 147 27 89
0 99 -2 164 -35 82 -42 209 -158 302 -277 36 -46 120 -165 187 -266 67 -100
281 -404 475 -674 l353 -493 407 0 c225 0 449 -3 499 -6 78 -6 92 -5 97 9 18
46 -259 439 -1001 1416 -417 550 -705 957 -737 1043 -4 12 8 35 36 70 41 53
412 427 925 933 461 455 642 645 642 673 0 4 -226 7 -503 7 -449 0 -505 -2
-532 -17 -29 -15 -61 -47 -221 -217 -38 -40 -94 -97 -124 -125 -30 -27 -109
-104 -175 -171 -123 -123 -143 -143 -495 -515 -406 -428 -592 -620 -599 -620
-3 0 -4 373 -3 830 l4 830 -115 0 c-167 0 -360 -18 -452 -41 -213 -54 -289
-169 -310 -469 -6 -89 1 -730 26 -2275 10 -624 3 -1193 -17 -1427 l-7 -77 -60
42 c-364 254 -753 910 -906 1529 -33 133 -61 284 -61 329 l0 28 299 3 c285 3
301 4 327 24 15 11 37 33 48 48 20 26 21 40 21 286 0 247 -1 260 -21 287 -11
15 -36 38 -54 51 -32 22 -39 22 -321 22 l-288 0 5 33 c130 717 491 1335 1043
1785 554 452 1228 675 1964 648 579 -21 968 -169 1637 -624 168 -114 170 -107
11 48 -165 161 -282 256 -461 377 -439 294 -929 473 -1453 528 -179 18 -532
18 -707 -1z"/>
<path d="M7040 3480 l0 -120 -237 0 c-269 0 -344 -9 -423 -48 -48 -23 -59 -35
-85 -87 l-30 -60 0 -190 c0 -180 1 -193 24 -239 26 -53 84 -97 156 -119 27 -8
125 -12 305 -12 231 0 272 2 322 19 78 25 122 65 149 134 22 55 23 72 27 450
l4 392 -106 0 -106 0 0 -120z m-2 -470 l-3 -170 -28 -27 -27 -28 -203 -3
c-290 -5 -301 1 -312 148 -9 108 6 198 38 222 31 24 43 25 305 27 l234 1 -4
-170z"/>
<path d="M1810 3075 l0 -475 105 0 105 0 2 231 3 231 262 -231 263 -232 141 3
142 3 -277 243 -276 243 147 126 c82 69 162 137 178 152 17 14 70 60 119 101
l89 75 -137 3 -138 3 -42 -35 c-22 -18 -138 -119 -256 -224 l-215 -190 -3 224
-2 224 -105 0 -105 0 0 -475z"/>
<path d="M890 3349 c-73 -12 -140 -48 -167 -87 -33 -49 -43 -118 -43 -286 0
-184 13 -239 69 -295 61 -61 108 -73 324 -78 l187 -5 0 81 0 81 -159 0 c-143
0 -161 2 -184 20 -20 16 -26 31 -29 70 l-3 50 388 0 389 0 -4 163 c-4 197 -11
216 -103 262 l-60 30 -275 2 c-151 1 -300 -3 -330 -8z m530 -162 c22 -11 25
-19 28 -80 l3 -67 -281 0 -280 0 0 49 c0 106 11 110 290 110 154 1 222 -3 240
-12z"/>
<path d="M3110 3349 c-84 -15 -155 -51 -184 -96 -36 -55 -46 -110 -46 -273 0
-162 10 -218 46 -272 57 -88 175 -113 493 -105 235 5 288 16 351 73 64 58 75
102 75 299 0 201 -12 252 -75 309 -66 59 -114 69 -375 72 -126 1 -255 -2 -285
-7z m451 -179 c66 -18 74 -36 77 -177 6 -207 -2 -213 -279 -213 -192 0 -237 9
-259 49 -15 28 -24 166 -16 232 14 105 44 118 276 119 91 0 181 -5 201 -10z"/>
<path d="M4237 3350 c-116 -18 -194 -81 -219 -176 -5 -21 -12 -159 -14 -306
l-5 -268 105 0 106 0 1 238 c0 156 4 249 12 272 20 57 47 65 249 68 207 4 250
-4 278 -51 18 -29 20 -52 20 -279 l0 -248 106 0 105 0 -3 278 c-5 315 -10 345
-78 406 -65 59 -114 68 -375 72 -126 1 -256 -1 -288 -6z"/>
<path d="M5395 3354 c-11 -2 -43 -9 -72 -15 -64 -13 -126 -57 -153 -108 -52
-103 -52 -398 0 -501 25 -49 70 -83 140 -107 48 -16 89 -18 310 -18 215 0 264
3 312 18 131 40 178 133 178 351 0 175 -28 271 -94 321 -66 50 -111 57 -366
61 -129 1 -244 1 -255 -2z m453 -192 c38 -22 52 -71 52 -182 0 -190 -14 -200
-280 -200 -209 0 -242 8 -265 64 -20 47 -20 224 -1 270 25 60 50 65 286 63
131 -2 192 -6 208 -15z"/>
<path d="M7622 3345 c-108 -24 -170 -76 -197 -167 -12 -41 -15 -108 -15 -315
l0 -263 99 0 100 0 3 258 c3 230 5 260 22 284 23 35 69 48 174 48 l82 0 0 85
0 85 -102 -1 c-57 0 -131 -7 -166 -14z"/>
<path d="M8225 3349 c-117 -19 -191 -74 -217 -161 -18 -60 -18 -357 1 -418 18
-63 82 -123 151 -145 70 -22 426 -33 549 -16 143 19 216 74 240 181 14 58 14
322 0 380 -23 100 -98 159 -226 179 -82 13 -423 13 -498 0z m476 -188 c45 -23
54 -53 54 -185 0 -192 -6 -196 -279 -196 -273 0 -281 6 -274 222 5 175 10 178
288 175 130 -2 193 -6 211 -16z"/>
<path d="M9281 3345 c-81 -18 -126 -48 -154 -105 -19 -40 -22 -64 -25 -201 -2
-95 1 -172 8 -197 17 -66 61 -109 137 -132 59 -18 93 -20 349 -20 l284 0 0
-54 c0 -85 -2 -86 -201 -86 l-169 0 0 -86 0 -85 218 3 c210 3 218 4 261 28 32
18 52 39 70 75 25 48 26 55 29 290 7 430 -15 507 -160 562 -61 23 -551 29
-647 8z m575 -198 c23 -27 24 -35 24 -163 l0 -134 -255 0 c-291 0 -309 4 -321
65 -3 20 -4 76 -2 125 4 91 14 114 53 131 11 4 123 7 248 6 l229 -2 24 -28z"/>
<path d="M10710 3286 l0 -74 141 -4 c140 -3 141 -3 165 -31 16 -19 24 -40 24
-67 l0 -39 -342 -3 -343 -3 -45 -25 c-67 -37 -85 -80 -84 -206 0 -128 14 -156
99 -199 l60 -30 281 -3 c421 -5 493 11 549 123 l30 60 0 195 c0 193 0 195 -27
247 -52 98 -150 132 -375 133 l-133 0 0 -74z m328 -417 c-7 -124 -36 -133
-374 -127 -229 4 -234 6 -234 97 0 35 6 65 16 79 15 22 17 22 306 22 l290 0
-4 -71z"/>
<path d="M11525 3353 c-48 -10 -93 -37 -111 -66 -16 -26 -19 -51 -19 -142 0
-129 12 -165 64 -197 35 -22 47 -23 323 -28 157 -3 290 -9 295 -13 4 -5 8 -31
8 -57 0 -84 15 -81 -363 -81 l-332 0 0 -85 0 -85 388 3 c364 3 389 4 426 23
72 36 81 59 81 198 0 142 -14 178 -80 212 -36 18 -66 20 -317 25 -152 3 -280
8 -284 13 -14 14 -9 108 7 118 8 5 74 9 147 9 l132 0 0 80 0 80 -172 -1 c-95
-1 -182 -3 -193 -6z"/>
<path d="M11193 2293 c-8 -3 -13 -24 -13 -54 l0 -49 60 0 60 0 0 43 c0 24 -5
48 -12 55 -12 12 -71 15 -95 5z"/>
<path d="M2680 2043 c0 -216 2 -253 18 -283 21 -42 79 -67 134 -56 29 5 35 10
33 29 -1 12 -3 30 -4 40 -1 11 -9 17 -25 17 -54 0 -56 11 -56 266 l0 234 -50
0 -50 0 0 -247z"/>
<path d="M3610 2208 l0 -83 -58 0 c-48 0 -68 -6 -107 -30 -62 -38 -88 -88 -93
-176 -8 -128 55 -205 175 -216 65 -6 173 11 184 29 9 14 12 461 3 516 l-7 42
-48 0 -49 0 0 -82z m-10 -287 c0 -110 -2 -120 -20 -126 -28 -9 -93 11 -107 34
-34 55 -22 155 24 190 16 13 41 21 64 21 l39 0 0 -119z"/>
<path d="M886 2257 c-48 -27 -76 -78 -76 -138 0 -77 40 -121 148 -160 53 -19
82 -47 82 -80 0 -60 -67 -90 -160 -70 -69 15 -66 16 -78 -31 -13 -51 -12 -52
75 -68 163 -31 282 42 283 173 0 82 -38 127 -146 171 -69 28 -94 49 -94 79 0
42 31 59 97 54 32 -2 68 -7 79 -11 18 -6 23 -2 33 25 17 49 14 55 -28 67 -66
20 -170 15 -215 -11z"/>
<path d="M1917 2259 c-51 -27 -81 -92 -74 -157 8 -73 37 -100 152 -144 95 -37
111 -104 34 -144 -32 -16 -61 -16 -146 2 -30 6 -32 4 -44 -36 -15 -50 -11 -54
71 -71 114 -24 230 13 264 85 29 61 30 115 4 166 -19 36 -34 49 -83 72 -129
60 -130 61 -133 94 -4 45 19 64 77 64 27 0 62 -5 80 -11 18 -6 34 -9 36 -7 2
2 7 22 11 45 6 41 6 41 -32 52 -65 18 -174 13 -217 -10z"/>
<path d="M12213 2168 c4 -62 7 -150 7 -194 l0 -81 30 -7 c17 -3 41 -1 55 4
l25 10 0 190 0 190 -62 0 -61 0 6 -112z"/>
<path d="M6656 2149 c-82 -112 -86 -119 -53 -119 24 0 24 -1 29 -118 5 -122
20 -172 55 -187 41 -17 90 -24 126 -18 39 6 45 19 31 71 -6 19 -11 22 -35 17
-20 -5 -33 -1 -48 14 -18 18 -21 33 -21 121 l0 100 28 0 c60 0 73 10 70 49 -3
35 -4 36 -50 39 l-48 3 0 60 c0 32 -4 59 -9 59 -4 0 -38 -41 -75 -91z"/>
<path d="M2318 2119 c-29 -8 -38 -16 -38 -32 0 -44 15 -52 95 -52 78 0 95 -8
95 -47 0 -15 -9 -18 -52 -18 -103 -1 -168 -53 -168 -134 0 -107 96 -154 259
-126 l73 12 -4 157 c-4 168 -9 186 -59 222 -36 26 -140 35 -201 18z m160 -268
c4 -50 -6 -61 -55 -61 -34 0 -73 29 -73 53 0 17 21 43 40 50 8 3 31 5 50 4 34
-2 35 -3 38 -46z"/>
<path d="M4494 2120 c-68 -21 -108 -93 -87 -156 12 -35 44 -59 107 -82 64 -23
79 -46 47 -73 -26 -21 -75 -25 -118 -8 -23 8 -30 7 -40 -7 -7 -10 -13 -30 -13
-45 0 -32 18 -39 110 -39 118 1 180 48 180 138 0 55 -29 87 -101 113 -65 24
-79 40 -58 65 11 13 26 15 75 11 50 -5 63 -3 68 9 11 28 6 62 -8 67 -30 12
-132 16 -162 7z"/>
<path d="M5082 2101 l-40 -30 -6 25 c-5 20 -12 24 -46 24 l-40 0 0 -205 0
-205 55 0 55 0 0 131 c0 163 11 189 77 189 22 0 36 -6 43 -19 5 -11 10 -83 10
-160 l0 -141 55 0 55 0 -1 148 c0 83 -6 164 -13 187 -25 84 -126 112 -204 56z"/>
<path d="M6349 2121 c-84 -26 -122 -100 -88 -174 11 -25 70 -59 121 -71 34 -8
55 -41 38 -61 -18 -21 -75 -29 -122 -17 -23 6 -44 9 -46 7 -2 -2 -6 -21 -9
-43 -5 -35 -3 -40 18 -45 42 -12 149 -7 182 7 18 7 46 28 61 47 25 29 28 39
23 82 -5 60 -33 90 -101 110 -54 15 -73 34 -62 62 5 15 16 17 76 13 74 -6 80
-2 80 47 0 20 -7 25 -50 34 -58 12 -84 13 -121 2z"/>
<path d="M7315 2119 c-98 -28 -149 -166 -110 -295 18 -62 56 -99 117 -114 95
-24 183 9 222 85 27 52 29 183 3 232 -44 83 -137 120 -232 92z m100 -85 c41
-16 61 -146 32 -204 -29 -58 -102 -59 -132 -1 -30 58 -13 188 27 204 19 8 54
8 73 1z"/>
<path d="M7938 2121 c-102 -33 -157 -150 -128 -272 25 -105 113 -160 233 -146
63 8 71 16 63 62 l-7 37 -49 -6 c-67 -9 -114 11 -129 54 -25 74 -3 162 46 181
16 6 49 8 76 4 50 -6 50 -6 61 46 4 20 1 29 -11 33 -29 12 -127 16 -155 7z"/>
<path d="M8289 2120 c-76 -23 -129 -104 -129 -199 0 -146 69 -221 202 -221
121 0 198 128 168 276 -24 112 -132 177 -241 144z m101 -90 c37 -20 52 -132
25 -195 -25 -61 -94 -67 -131 -11 -12 20 -15 43 -12 102 3 65 7 79 27 95 26
21 62 24 91 9z"/>
<path d="M8773 2110 c-18 -11 -33 -24 -33 -30 0 -5 -4 -10 -10 -10 -5 0 -10
11 -10 25 0 22 -4 25 -37 25 l-38 0 0 -205 0 -205 53 0 52 0 0 131 c0 159 11
189 72 189 17 0 31 -7 38 -19 5 -11 10 -83 10 -160 l0 -141 55 0 55 0 0 138
c0 163 8 185 68 180 47 -4 50 -15 51 -185 l1 -133 50 0 50 0 0 160 c0 116 -4
170 -14 195 -34 81 -163 87 -220 10 -13 -18 -14 -18 -20 1 -16 51 -115 70
-173 34z"/>
<path d="M9470 2119 c-14 -6 -35 -20 -47 -31 l-22 -21 -7 27 c-5 23 -11 26
-50 26 l-44 0 0 -300 0 -300 55 0 55 0 0 90 0 90 38 0 c59 0 135 27 164 57 40
42 58 94 58 171 0 76 -27 143 -70 174 -31 22 -97 31 -130 17z m51 -98 c22 -17
24 -27 24 -101 0 -78 -1 -83 -29 -106 -21 -19 -38 -24 -65 -22 l-36 3 -3 98
c-3 92 -1 98 22 122 30 30 56 32 87 6z"/>
<path d="M10165 2122 c-90 -32 -130 -97 -130 -212 0 -57 5 -85 21 -115 66
-126 266 -126 329 0 15 30 20 60 20 120 -1 93 -26 152 -82 186 -34 21 -124 33
-158 21z m105 -102 c26 -26 33 -59 28 -131 -5 -71 -29 -102 -78 -102 -44 0
-69 29 -77 90 -11 101 18 163 77 163 17 0 39 -9 50 -20z"/>
<path d="M10670 2123 c-8 -3 -27 -16 -41 -30 l-26 -24 -7 25 c-5 22 -12 26
-41 26 l-35 0 0 -205 0 -205 49 0 49 0 4 139 c4 154 14 181 68 181 48 0 55
-20 58 -177 l4 -143 49 0 49 0 0 130 c0 98 4 138 15 160 9 17 20 30 24 30 5 0
15 2 23 5 7 3 22 -1 33 -9 18 -13 21 -30 25 -163 l5 -148 50 0 50 0 3 110 c7
238 -15 294 -120 303 -51 4 -58 2 -92 -29 -35 -30 -39 -31 -48 -15 -19 34
-102 56 -148 39z"/>
<path d="M11488 2118 c-56 -15 -88 -58 -88 -118 0 -63 19 -85 100 -114 54 -20
66 -28 68 -48 5 -38 -44 -55 -112 -41 -28 6 -55 8 -59 4 -4 -4 -10 -24 -13
-43 -6 -33 -4 -35 26 -42 59 -11 151 -6 186 10 40 19 72 59 75 95 7 83 -19
118 -106 144 -55 16 -74 37 -53 62 10 12 27 14 75 10 69 -5 68 -6 77 39 6 27
4 32 -16 37 -51 13 -125 15 -160 5z"/>
<path d="M11867 2116 c-67 -24 -97 -64 -117 -151 -24 -109 31 -227 118 -253
174 -52 295 92 242 287 -27 102 -137 154 -243 117z m117 -95 c47 -52 39 -199
-12 -225 -35 -18 -77 -10 -96 18 -34 53 -29 164 10 207 23 25 76 25 98 0z"/>
<path d="M596 2104 c-3 -9 -6 -28 -6 -44 0 -53 8 -60 66 -60 l54 0 0 60 0 60
-54 0 c-40 0 -55 -4 -60 -16z"/>
<path d="M1230 2000 c0 -65 5 -143 11 -172 23 -107 110 -145 269 -118 l70 12
0 199 0 199 -55 0 -55 0 0 -165 0 -165 -29 0 c-85 0 -101 33 -101 213 l0 117
-55 0 -55 0 0 -120z"/>
<path d="M2920 1973 c0 -129 3 -152 21 -190 12 -24 33 -50 48 -58 44 -22 122
-28 200 -15 l71 12 0 199 0 199 -50 0 -50 0 -2 -162 -3 -163 -36 -3 c-76 -6
-98 44 -99 221 l0 107 -50 0 -50 0 0 -147z"/>
<path d="M4056 2094 c-116 -79 -113 -304 5 -364 54 -28 122 -35 192 -20 61 12
67 22 47 74 -8 23 -12 24 -42 15 -18 -5 -54 -9 -81 -9 -38 0 -53 5 -72 25 -14
13 -25 33 -25 45 0 19 6 20 131 20 l132 0 -6 59 c-10 119 -74 181 -184 181
-46 0 -66 -5 -97 -26z m140 -62 c13 -8 34 -46 34 -61 0 -7 -30 -11 -80 -11
-44 0 -80 2 -80 5 0 14 31 64 42 68 20 8 72 8 84 -1z"/>
<path d="M5382 1967 c4 -165 14 -198 68 -238 35 -26 123 -34 208 -19 l72 12 0
199 0 199 -55 0 -55 0 0 -165 0 -165 -36 0 c-79 0 -94 32 -94 206 l0 124 -56
0 -56 0 4 -153z"/>
<path d="M5925 2109 c-86 -50 -127 -149 -105 -255 15 -71 65 -127 130 -144 48
-13 137 -9 182 8 24 10 26 14 18 47 -11 47 -11 47 -49 34 -18 -6 -57 -9 -88
-7 -44 4 -59 10 -74 29 -10 13 -19 32 -19 42 0 15 13 17 130 17 l130 0 0 53
c0 62 -31 131 -73 161 -33 24 -150 34 -182 15z m115 -79 c10 -5 23 -23 28 -40
l11 -30 -80 0 c-67 0 -79 2 -79 17 0 46 72 78 120 53z"/>
<path d="M6920 1915 l0 -205 54 0 54 0 4 136 c3 129 4 137 27 155 13 10 38 19
57 19 28 0 35 5 40 25 3 14 3 36 0 50 -9 37 -64 35 -109 -5 l-35 -30 -6 30
c-5 27 -9 30 -46 30 l-40 0 0 -205z"/>
<path d="M9760 1916 l0 -206 55 0 55 0 0 121 c0 152 17 188 87 189 26 0 34 5
39 25 3 14 3 36 0 50 -10 37 -64 35 -110 -5 l-35 -31 -3 28 c-3 25 -7 28 -45
31 l-43 3 0 -205z"/>
<path d="M11147 2113 c-4 -3 -7 -24 -7 -45 0 -36 2 -38 30 -38 l30 0 0 -160 0
-160 24 -6 c13 -3 35 -4 47 -2 l24 3 3 208 2 207 -73 0 c-41 0 -77 -3 -80 -7z"/>
<path d="M600 1843 c0 -54 -3 -142 -7 -195 l-6 -98 62 0 61 0 -2 193 -3 192
-52 3 -53 3 0 -98z"/>
<path d="M12217 1824 c-4 -4 -7 -31 -7 -59 0 -51 1 -52 33 -58 18 -3 45 -3 60
0 27 5 28 7 25 62 l-3 56 -50 3 c-28 2 -54 0 -58 -4z"/>
</g>
</svg>
