<?xml version="1.0" standalone="no"?>
<!DOCTYPE svg PUBLIC "-//W3C//DTD SVG 20010904//EN"
 "http://www.w3.org/TR/2001/REC-SVG-20010904/DTD/svg10.dtd">
<svg version="1.0" xmlns="http://www.w3.org/2000/svg"
 width="1279.000000pt" height="431.000000pt" viewBox="0 0 1279.000000 431.000000"
 preserveAspectRatio="xMidYMid meet">

<g transform="translate(0.000000,431.000000) scale(0.100000,-0.100000)"
fill="#000000" stroke="none">
<path d="M6392 3306 c-39 -41 -49 -59 -45 -75 11 -42 36 -43 89 -2 41 31 49
42 49 70 0 23 -7 38 -21 47 -19 13 -25 10 -72 -40z"/>
<path d="M4321 3303 c-19 -2 -45 -11 -57 -20 -24 -15 -24 -16 -24 -224 0 -201
1 -209 22 -229 56 -52 154 -4 183 90 8 25 7 25 -13 7 -13 -12 -32 -17 -54 -15
l-33 3 -3 138 -3 137 -29 0 c-17 0 -30 5 -30 11 0 17 80 6 126 -17 57 -28 65
-52 61 -169 -3 -104 -16 -144 -61 -194 l-21 -24 40 8 c22 4 42 10 45 14 3 5
15 13 27 20 12 6 35 33 50 59 26 44 28 55 28 157 0 98 -3 115 -24 152 -43 75
-126 109 -230 96z"/>
<path d="M2835 3275 c-97 -27 -143 -47 -209 -90 -63 -41 -145 -114 -129 -115
6 0 18 6 25 13 29 28 137 86 203 108 57 19 91 23 185 23 156 0 235 -27 396
-135 83 -55 199 -200 263 -326 l31 -62 87 6 c49 3 90 7 92 9 6 5 -67 154 -97
199 -139 208 -315 339 -510 380 -104 22 -239 18 -337 -10z"/>
<path d="M2791 3169 c-201 -39 -401 -203 -510 -416 -26 -52 -26 -63 -1 -63 11
0 20 -4 20 -9 0 -5 11 -12 24 -15 13 -3 37 -20 55 -38 17 -17 32 -30 33 -27 2
2 19 38 39 79 84 173 211 297 374 365 64 27 81 29 190 30 109 0 126 -3 189
-28 69 -28 100 -48 190 -121 74 -61 41 -12 -49 72 -79 73 -158 125 -210 138
-16 4 -35 10 -40 15 -31 24 -217 35 -304 18z"/>
<path d="M4702 3150 c-26 -12 -46 -29 -52 -45 -13 -34 -13 -256 0 -289 8 -22
16 -26 49 -26 l40 0 3 133 3 132 45 11 c38 9 45 15 48 38 8 62 -55 83 -136 46z"/>
<path d="M4918 3146 c-51 -36 -71 -94 -67 -189 3 -58 9 -81 29 -110 46 -68
137 -85 200 -39 87 65 92 248 10 327 -43 41 -121 46 -172 11z m119 -106 c16
-32 16 -98 0 -130 -15 -30 -48 -37 -71 -15 -19 19 -23 124 -5 156 15 28 60 22
76 -11z"/>
<path d="M5239 3146 c-92 -63 -92 -250 1 -316 25 -18 41 -21 76 -17 45 5 49 2
38 -28 -13 -33 -70 -37 -136 -10 -23 9 -34 -36 -18 -74 13 -33 33 -41 111 -41
65 0 103 23 125 76 21 50 20 351 -2 382 -39 56 -134 69 -195 28z m116 -155 c0
-68 -2 -74 -23 -82 -34 -13 -62 20 -62 74 0 55 23 89 58 85 27 -3 27 -4 27
-77z"/>
<path d="M5905 3160 c-106 -43 -128 -265 -34 -344 31 -27 103 -42 144 -32 35
9 65 41 65 69 0 38 -17 47 -60 29 -32 -12 -45 -13 -69 -2 -26 10 -48 37 -38
46 1 2 36 8 77 15 84 13 99 25 100 82 0 75 -63 147 -128 146 -20 0 -46 -4 -57
-9z m79 -96 c25 -24 19 -33 -26 -41 -51 -8 -52 -7 -56 6 -4 13 34 51 52 51 8
0 22 -7 30 -16z"/>
<path d="M6195 3154 c-65 -34 -65 -34 -65 -194 0 -161 3 -170 57 -170 l33 0 0
123 c0 67 4 128 9 135 4 8 27 16 50 19 39 5 41 8 41 39 0 18 -7 40 -16 48 -20
20 -70 20 -109 0z"/>
<path d="M6537 3155 c-24 -14 -28 -22 -25 -53 3 -33 6 -37 28 -34 70 8 102 6
110 -8 16 -24 12 -29 -27 -35 -108 -19 -133 -41 -133 -121 0 -36 6 -59 20 -77
56 -71 219 -55 241 24 11 38 10 164 -2 217 -14 70 -47 95 -124 99 -41 2 -69
-2 -88 -12z m123 -245 c0 -23 -5 -31 -25 -36 -26 -6 -55 9 -55 30 0 20 23 36
52 36 24 0 28 -4 28 -30z"/>
<path d="M5500 3023 c0 -111 3 -145 18 -173 31 -62 120 -88 196 -56 59 24 66
45 66 188 0 155 -8 178 -61 178 l-38 0 -3 -137 c-3 -136 -3 -138 -26 -141 -44
-7 -52 12 -52 124 0 130 -10 154 -62 154 l-38 0 0 -137z"/>
<path d="M6357 3153 c-11 -10 -8 -309 3 -337 8 -22 16 -26 50 -26 l40 0 0 173
c0 121 -4 177 -12 185 -13 13 -70 17 -81 5z"/>
<path d="M7050 2811 l0 -140 -257 -3 c-242 -3 -261 -4 -298 -25 -52 -28 -79
-57 -107 -118 -22 -47 -23 -61 -23 -275 0 -214 1 -228 23 -275 28 -62 56 -91
106 -116 108 -52 503 -51 606 1 53 27 95 82 114 149 14 49 16 124 16 499 l0
442 -90 0 -90 0 0 -139z m0 -508 c0 -280 2 -278 -250 -278 -209 0 -231 7 -249
79 -13 54 -14 225 -1 281 5 22 21 50 35 63 25 21 32 22 246 22 l219 0 0 -167z"/>
<path d="M2685 2831 c-55 -13 -74 -30 -86 -74 -8 -30 -10 -177 -7 -527 2 -267
2 -523 -1 -570 l-6 -85 -36 39 c-78 83 -165 292 -190 457 l-12 79 -89 0 c-104
0 -99 12 -68 -157 39 -216 125 -418 233 -543 93 -108 264 -237 340 -254 l27
-6 0 443 c0 384 2 445 16 465 25 37 50 45 83 27 36 -18 66 -57 118 -155 23
-41 75 -136 116 -210 l76 -135 121 -3 122 -3 -43 78 c-23 43 -98 173 -167 288
-68 116 -142 244 -165 287 l-40 76 49 62 c27 35 78 100 114 145 173 219 210
268 210 276 0 5 -52 9 -115 9 -97 0 -117 -3 -130 -17 -45 -55 -192 -246 -270
-352 l-90 -123 -3 246 -2 246 -38 -1 c-20 -1 -50 -4 -67 -8z"/>
<path d="M1696 2655 c-21 -7 -54 -28 -73 -46 -52 -52 -65 -107 -70 -314 -7
-281 23 -380 132 -435 46 -22 64 -25 213 -28 l162 -4 0 91 0 91 -138 0 c-132
0 -140 1 -160 23 -17 18 -22 36 -22 80 l0 57 341 0 341 0 -4 188 c-4 199 -9
224 -59 266 -51 43 -76 46 -356 46 -202 -1 -278 -4 -307 -15z m508 -166 c29
-14 36 -34 36 -111 l0 -58 -250 0 -250 0 0 54 c0 76 13 103 52 115 48 13 381
14 412 0z"/>
<path d="M2187 2463 c-2 -4 -8 -34 -11 -65 -7 -58 -7 -58 19 -58 26 0 26 1 23
62 -3 55 -17 84 -31 61z"/>
<path d="M3551 2660 c-53 -13 -114 -61 -138 -110 -36 -72 -45 -149 -41 -340 4
-149 8 -183 26 -231 23 -58 57 -96 108 -122 51 -26 197 -40 354 -34 222 8 291
39 341 149 23 51 24 63 24 278 0 216 -1 227 -24 278 -31 68 -88 118 -153 131
-56 13 -446 13 -497 1z m459 -218 c34 -35 44 -96 38 -240 -4 -109 -18 -144
-66 -164 -17 -7 -87 -12 -183 -11 -227 1 -238 9 -247 182 -6 133 9 212 45 241
24 18 40 20 205 20 l180 0 28 -28z"/>
<path d="M3677 2423 c5 -16 8 -106 8 -201 l0 -172 86 0 87 0 7 99 c6 91 3 162
-11 264 l-6 37 -89 0 -89 0 7 -27z"/>
<path d="M4555 2661 c-56 -16 -80 -29 -112 -61 -63 -64 -67 -89 -71 -453 l-3
-328 88 3 88 3 5 285 c4 203 9 291 18 307 28 49 45 53 230 53 188 0 212 -6
235 -59 7 -16 13 -133 17 -306 l5 -280 85 0 85 0 -1 320 c0 277 -2 326 -17
364 -24 63 -61 108 -110 134 -40 21 -55 22 -277 24 -129 1 -248 -2 -265 -6z"/>
<path d="M5545 2659 c-63 -15 -112 -55 -141 -115 -36 -74 -52 -258 -36 -420
20 -205 76 -272 245 -294 93 -12 272 -12 365 0 191 25 252 125 252 413 0 229
-34 335 -125 392 l-48 30 -236 2 c-130 1 -254 -3 -276 -8z m440 -201 c46 -21
55 -53 55 -208 0 -219 -7 -225 -250 -225 -236 1 -245 9 -239 249 l4 138 33 29
32 29 170 0 c110 0 178 -4 195 -12z"/>
<path d="M7564 2660 c-82 -19 -142 -80 -171 -175 -16 -53 -18 -97 -18 -360 l0
-300 90 0 90 0 5 295 c6 375 -2 357 165 362 l80 3 3 93 3 92 -108 -1 c-59 -1
-122 -4 -139 -9z"/>
<path d="M8071 2660 c-54 -13 -114 -61 -138 -110 -36 -72 -45 -149 -41 -340 4
-149 8 -183 26 -231 48 -121 140 -158 397 -159 201 0 310 25 366 87 54 58 63
101 67 314 5 280 -18 356 -129 419 -43 25 -48 25 -279 27 -129 1 -250 -2 -269
-7z m459 -218 c34 -35 44 -96 38 -240 -4 -109 -18 -144 -66 -165 -17 -7 -87
-11 -182 -12 -223 0 -236 9 -246 179 -8 127 7 214 43 243 27 22 36 23 206 23
l179 0 28 -28z"/>
<path d="M9025 2661 c-46 -11 -72 -28 -101 -66 -41 -54 -54 -129 -54 -311 0
-227 18 -277 117 -332 48 -26 49 -26 311 -30 l262 -4 6 -24 c8 -33 -3 -90 -22
-109 -12 -12 -43 -15 -160 -15 l-144 0 0 -100 0 -100 133 0 c220 0 297 23 340
104 22 40 22 47 22 431 l0 390 -27 55 c-30 60 -74 97 -135 111 -45 10 -505 10
-548 0z m502 -206 c29 -21 39 -78 38 -220 l-1 -120 -236 -3 -236 -2 -21 26
c-18 24 -21 40 -21 140 0 117 9 158 38 180 27 21 410 19 439 -1z"/>
<path d="M10290 2590 l0 -80 110 0 c136 0 164 -11 180 -71 23 -85 39 -81 -258
-79 -171 0 -277 -3 -300 -11 -81 -24 -106 -43 -132 -94 -22 -45 -25 -62 -25
-165 0 -100 3 -121 23 -162 19 -39 33 -52 80 -75 l57 -28 245 0 c135 0 270 4
301 8 80 12 134 49 167 117 l27 55 0 240 0 240 -28 56 c-30 63 -82 105 -144
120 -21 5 -98 9 -170 9 l-133 0 0 -80z m297 -459 c-6 -89 -17 -118 -53 -131
-14 -6 -119 -10 -234 -10 -258 0 -252 -3 -248 115 3 73 5 80 28 92 18 9 93 13
269 13 l244 0 -6 -79z"/>
<path d="M10972 2655 c-55 -24 -72 -76 -72 -225 0 -101 4 -133 19 -167 31 -67
44 -70 317 -75 185 -2 245 -6 258 -17 11 -10 16 -30 16 -71 0 -93 11 -90 -323
-90 l-287 0 0 -95 0 -95 283 0 c378 0 438 10 484 78 15 23 18 49 18 184 0 171
-4 184 -69 232 -26 20 -43 21 -274 24 -174 3 -249 7 -254 15 -4 7 -8 38 -8 70
0 53 2 58 26 67 14 6 72 10 130 10 l104 0 0 85 0 85 -167 0 c-123 -1 -177 -5
-201 -15z"/>
<path d="M2836 2048 c-3 -13 -6 -215 -6 -450 l0 -426 53 -13 c66 -16 194 -16
272 0 77 16 221 87 308 152 124 93 230 236 302 407 40 95 42 92 -78 92 l-82
-1 -45 -82 c-57 -104 -177 -228 -271 -280 -113 -62 -316 -99 -337 -61 -5 9 -7
107 -4 218 6 266 -3 385 -32 428 -28 42 -70 50 -80 16z"/>
<path d="M4040 1673 c-8 -3 -17 -9 -20 -12 -3 -4 -17 -16 -32 -26 -37 -28
-278 -335 -277 -354 0 -9 32 -36 71 -61 109 -70 173 -161 219 -310 l22 -74 28
34 c137 169 245 313 267 355 37 72 43 197 13 276 -25 66 -86 140 -135 163 -33
15 -124 21 -156 9z m147 -115 c73 -44 108 -195 65 -278 -19 -39 -160 -228
-184 -247 -12 -11 -17 -6 -32 25 -30 63 -104 159 -156 203 l-49 42 22 31 c65
92 181 228 200 236 40 16 98 11 134 -12z"/>
<path d="M9090 1355 c0 -32 3 -36 23 -33 17 2 22 10 22 33 0 23 -5 31 -22 33
-20 3 -23 -1 -23 -33z"/>
<path d="M4542 1370 c-13 -5 -30 -26 -38 -46 -21 -51 -4 -101 42 -120 42 -18
59 -46 44 -75 -9 -17 -19 -20 -53 -17 -39 3 -42 1 -42 -21 0 -19 7 -27 30 -33
60 -17 110 12 121 68 10 52 -3 82 -49 115 -72 52 -73 78 -1 82 32 2 40 6 42
25 2 16 -2 22 -15 22 -10 0 -27 2 -38 5 -11 2 -30 0 -43 -5z"/>
<path d="M4998 1369 c-20 -8 -31 -22 -39 -49 -16 -53 -2 -90 45 -115 47 -25
61 -48 46 -76 -9 -17 -19 -20 -53 -17 -39 3 -42 1 -42 -21 0 -19 7 -26 29 -32
46 -13 86 0 107 35 37 61 15 129 -50 156 -31 12 -48 41 -35 61 3 6 24 9 45 7
31 -3 39 0 43 17 3 11 2 23 -2 26 -14 13 -68 17 -94 8z"/>
<path d="M5320 1248 c0 -73 3 -143 7 -156 8 -31 51 -48 71 -28 13 12 12 16 -7
32 -19 17 -21 28 -21 151 l0 133 -25 0 -25 0 0 -132z"/>
<path d="M5735 1368 c-3 -7 -4 -26 -2 -43 2 -25 -2 -31 -22 -33 -63 -9 -98
-67 -88 -149 8 -70 35 -89 125 -85 l32 2 0 160 c0 154 -1 160 -20 160 -11 0
-23 -6 -25 -12z m-7 -196 c3 -75 -1 -82 -39 -62 -39 21 -15 150 25 137 6 -2
12 -36 14 -75z"/>
<path d="M9555 1374 c-6 -2 -9 -45 -7 -109 3 -93 5 -105 21 -105 22 0 31 41
31 141 0 52 -4 68 -16 73 -9 3 -16 6 -17 5 -1 0 -6 -2 -12 -5z"/>
<path d="M7083 1300 c-26 -45 -29 -56 -17 -63 10 -6 14 -28 14 -80 0 -82 9
-97 57 -97 25 0 33 4 33 18 0 9 -10 22 -22 27 -20 9 -23 19 -26 73 -3 57 -1
62 18 62 26 0 27 36 1 43 -14 3 -21 15 -23 38 l-3 34 -32 -55z"/>
<path d="M4407 1283 c-4 -3 -7 -19 -7 -35 0 -23 4 -28 25 -28 22 0 25 4 25 35
0 27 -4 35 -18 35 -10 0 -22 -3 -25 -7z"/>
<path d="M4687 1283 c-11 -11 -7 -146 6 -182 14 -40 56 -57 110 -43 l32 8 0
110 c0 105 -1 109 -22 112 -22 3 -23 1 -23 -88 0 -75 -3 -92 -16 -97 -30 -11
-44 25 -44 109 0 69 -2 78 -18 78 -10 0 -22 -3 -25 -7z"/>
<path d="M5163 1283 c-7 -2 -13 -13 -13 -23 0 -14 9 -20 37 -22 50 -4 59 -35
12 -40 -46 -4 -75 -46 -63 -90 12 -43 49 -61 104 -52 l42 7 -4 92 c-2 74 -7
97 -22 114 -18 20 -63 27 -93 14z m67 -153 c0 -23 -4 -30 -20 -30 -23 0 -35
22 -26 45 3 8 15 15 26 15 16 0 20 -7 20 -30z"/>
<path d="M5430 1197 c0 -128 12 -142 118 -138 l32 1 0 116 c0 114 0 115 -22
112 -22 -3 -23 -8 -26 -95 -2 -70 -6 -93 -16 -93 -26 0 -35 26 -38 105 -3 74
-5 80 -25 83 -22 3 -23 1 -23 -91z"/>
<path d="M5932 1267 c-42 -45 -51 -135 -18 -179 18 -24 55 -36 94 -31 25 4 32
10 32 29 0 21 -3 22 -36 17 -29 -5 -40 -2 -50 12 -23 31 -17 35 46 35 58 0 60
1 60 25 0 91 -78 146 -128 92z m68 -31 c0 -2 3 -11 6 -20 5 -13 -1 -16 -30
-16 -38 0 -44 8 -24 28 11 11 48 17 48 8z"/>
<path d="M6112 1274 c-16 -11 -22 -25 -22 -55 0 -35 4 -42 35 -61 46 -27 43
-53 -5 -53 -29 0 -36 -4 -38 -22 -3 -21 1 -23 42 -23 33 0 52 6 66 20 36 36
21 102 -26 121 -35 13 -28 45 8 41 17 -1 28 3 32 15 13 33 -52 46 -92 17z"/>
<path d="M6337 1283 c-4 -3 -7 -55 -7 -115 0 -108 0 -109 23 -106 20 3 22 9
25 80 2 53 7 80 18 89 26 21 39 -6 43 -91 3 -71 5 -80 22 -80 17 0 19 8 19 93
0 68 -4 99 -16 115 -18 26 -56 29 -75 6 -11 -14 -13 -14 -21 0 -10 17 -20 20
-31 9z"/>
<path d="M6527 1284 c-4 -4 -7 -43 -7 -86 0 -122 23 -151 113 -140 l37 4 0
114 c0 107 -1 114 -20 114 -19 0 -20 -7 -20 -90 0 -72 -3 -92 -15 -96 -31 -12
-44 15 -47 99 -2 64 -6 82 -18 85 -9 1 -19 0 -23 -4z"/>
<path d="M6757 1279 c-24 -14 -47 -69 -47 -111 0 -78 52 -125 122 -111 22 4
28 10 26 27 -2 17 -9 20 -36 18 -35 -4 -62 11 -62 34 0 10 15 14 54 14 30 0
57 4 61 9 3 6 1 29 -4 52 -15 65 -66 96 -114 68z m63 -60 c10 -17 7 -19 -25
-19 -38 0 -48 22 -18 39 20 11 29 7 43 -20z"/>
<path d="M6928 1273 c-37 -44 -28 -92 22 -118 43 -22 37 -50 -10 -50 -29 0
-36 -4 -38 -22 -3 -21 1 -23 40 -23 49 0 60 6 77 37 23 44 3 92 -46 107 -13 4
-23 11 -23 15 0 17 29 33 48 27 23 -8 36 16 19 33 -17 17 -72 13 -89 -6z"/>
<path d="M7200 1175 l0 -115 25 0 c23 0 24 3 27 76 3 65 6 79 23 88 28 15 33
25 28 47 -6 23 -12 23 -40 4 -19 -13 -22 -13 -27 0 -3 8 -12 15 -21 15 -13 0
-15 -18 -15 -115z"/>
<path d="M7351 1264 c-39 -49 -40 -139 -2 -185 21 -26 79 -32 105 -10 43 36
44 154 1 197 -33 33 -77 32 -104 -2z m77 -36 c7 -7 12 -33 12 -58 0 -48 -13
-70 -41 -70 -21 0 -29 20 -29 74 0 41 13 66 35 66 6 0 16 -5 23 -12z"/>
<path d="M7626 1267 c-29 -29 -41 -92 -27 -145 14 -50 31 -64 80 -66 47 -1 55
5 46 33 -5 16 -12 20 -29 15 -33 -8 -56 19 -56 66 0 46 23 74 56 67 16 -3 24
2 28 16 7 29 -1 37 -40 37 -23 0 -43 -8 -58 -23z"/>
<path d="M7779 1264 c-21 -22 -24 -35 -24 -95 0 -82 22 -113 79 -113 44 0 63
17 77 66 31 118 -61 218 -132 142z m81 -43 c24 -45 5 -121 -29 -121 -23 0 -31
19 -31 70 0 21 3 45 6 54 8 22 41 20 54 -3z"/>
<path d="M7970 1175 c0 -108 1 -115 20 -115 18 0 20 7 20 73 0 50 5 79 15 93
15 19 15 19 30 0 10 -14 15 -43 15 -93 0 -65 2 -73 19 -73 17 0 19 9 22 80 5
89 20 119 45 86 9 -13 14 -45 14 -93 0 -66 2 -73 20 -73 19 0 20 7 20 98 0 83
-3 102 -18 115 -23 21 -56 22 -72 2 -12 -14 -15 -14 -30 0 -21 19 -54 19 -71
-1 -11 -14 -13 -14 -21 0 -21 37 -28 10 -28 -99z"/>
<path d="M8255 1268 c-3 -13 -4 -88 -3 -168 3 -142 3 -145 26 -148 20 -3 22 0
22 46 l0 50 44 11 c35 8 47 17 60 45 19 40 21 111 3 146 -18 35 -61 49 -85 26
-17 -15 -20 -15 -25 -1 -9 23 -36 18 -42 -7z m105 -47 c25 -48 -6 -132 -43
-118 -13 5 -17 19 -17 52 0 52 14 85 35 85 8 0 19 -9 25 -19z"/>
<path d="M8460 1175 l0 -115 25 0 c23 0 24 3 27 78 3 69 5 78 26 87 15 7 22
18 22 37 0 32 -7 34 -37 13 -19 -13 -22 -13 -27 0 -3 8 -12 15 -21 15 -13 0
-15 -18 -15 -115z"/>
<path d="M8609 1264 c-21 -22 -24 -35 -24 -95 0 -82 22 -113 79 -113 44 0 63
17 77 66 31 118 -61 218 -132 142z m91 -91 c0 -44 -16 -73 -39 -73 -23 0 -31
19 -31 75 0 28 6 50 17 60 16 16 18 16 35 -5 10 -12 18 -38 18 -57z"/>
<path d="M8800 1175 c0 -108 1 -115 20 -115 18 0 20 7 20 73 0 50 5 79 15 93
15 19 15 19 30 0 10 -14 15 -43 15 -93 0 -66 2 -73 20 -73 18 0 20 7 20 73 0
50 5 79 15 93 15 19 15 19 30 0 10 -14 15 -43 15 -93 0 -66 2 -73 20 -73 19 0
20 7 20 98 0 83 -3 102 -18 115 -23 21 -56 22 -72 2 -12 -14 -15 -14 -30 0
-21 19 -54 19 -71 -1 -11 -14 -13 -14 -21 0 -21 37 -28 10 -28 -99z"/>
<path d="M9201 1264 c-34 -43 -23 -82 29 -109 17 -9 30 -22 30 -30 0 -17 -33
-28 -60 -20 -16 5 -20 2 -20 -19 0 -24 3 -26 43 -26 48 0 59 6 76 38 21 39 -6
102 -43 102 -21 0 -30 18 -16 35 8 10 21 13 37 9 22 -6 24 -4 21 17 -2 20 -10
25 -39 27 -30 3 -41 -2 -58 -24z"/>
<path d="M9370 1265 c-19 -20 -25 -40 -28 -89 -4 -55 -1 -66 20 -91 19 -22 34
-28 62 -28 56 0 70 20 74 108 4 68 2 76 -21 99 -34 34 -76 34 -107 1z m84 -57
c21 -59 -27 -141 -55 -96 -10 15 -12 89 -3 113 10 25 47 14 58 -17z"/>
<path d="M9070 1261 c0 -10 7 -21 15 -24 11 -5 15 -28 17 -94 2 -70 6 -88 18
-88 12 0 16 20 18 113 l3 112 -36 0 c-28 0 -35 -4 -35 -19z"/>
<path d="M3628 1168 c-19 -24 -59 -74 -89 -113 -167 -210 -189 -253 -189 -360
0 -142 90 -271 200 -289 53 -8 107 7 149 41 25 21 173 205 259 324 15 19 8 99
-8 99 -5 0 -47 -49 -95 -110 -109 -139 -115 -145 -126 -128 -5 7 -9 16 -9 20
0 4 47 66 105 138 58 73 105 136 105 141 0 6 -12 33 -26 61 -42 83 -155 192
-221 212 -17 5 -28 -2 -55 -36z"/>
<path d="M4400 1076 c0 -104 5 -120 38 -109 8 3 12 34 12 109 l0 104 -25 0
-25 0 0 -104z"/>
<path d="M9545 1100 c-9 -27 1 -40 31 -40 20 0 24 5 24 30 0 25 -4 30 -24 30
-16 0 -27 -7 -31 -20z"/>
<path d="M4213 943 c-27 -32 -68 -84 -92 -115 l-41 -58 95 -121 c110 -137 112
-138 145 -32 36 117 18 290 -38 361 l-18 24 -51 -59z"/>
<path d="M3946 611 c-42 -55 -76 -107 -76 -116 0 -34 93 -92 163 -101 23 -3
61 -1 83 5 43 11 105 49 111 66 4 14 -176 245 -192 245 -6 0 -46 -45 -89 -99z"/>
</g>
</svg>
