<?xml version="1.0" standalone="no"?>
<!DOCTYPE svg PUBLIC "-//W3C//DTD SVG 20010904//EN"
 "http://www.w3.org/TR/2001/REC-SVG-20010904/DTD/svg10.dtd">
<svg version="1.0" xmlns="http://www.w3.org/2000/svg"
 width="1275.000000pt" height="253.000000pt" viewBox="0 0 1275.000000 253.000000"
 preserveAspectRatio="xMidYMid meet">

<g transform="translate(0.000000,253.000000) scale(0.100000,-0.100000)"
fill="#000000" stroke="none">
<path d="M7010 2260 l0 -120 -237 0 c-269 0 -344 -9 -423 -48 -48 -23 -59 -35
-85 -87 l-30 -60 0 -190 c0 -180 1 -193 24 -238 25 -52 66 -85 141 -114 39
-15 83 -17 315 -18 237 0 277 2 327 19 78 25 122 65 149 134 22 55 23 72 27
450 l4 392 -106 0 -106 0 0 -120z m-2 -470 l-3 -170 -28 -27 -27 -28 -203 -3
c-290 -5 -301 1 -312 148 -9 108 6 198 38 222 31 24 43 25 305 27 l234 1 -4
-170z"/>
<path d="M1780 1855 l0 -475 105 0 105 0 2 231 3 231 263 -231 262 -232 141 3
142 3 -277 243 -276 243 147 126 c82 69 162 137 178 152 17 14 70 60 119 101
l89 75 -137 3 -138 3 -42 -35 c-22 -18 -138 -119 -256 -224 l-215 -190 -3 224
-2 224 -105 0 -105 0 0 -475z"/>
<path d="M860 2129 c-73 -12 -140 -48 -167 -87 -33 -49 -43 -118 -43 -286 0
-184 13 -239 69 -295 61 -61 108 -73 324 -78 l187 -5 0 81 0 81 -159 0 c-145
0 -161 2 -185 21 -22 17 -26 28 -26 70 l0 49 386 0 386 0 -4 163 c-4 197 -11
216 -103 262 l-60 30 -275 2 c-151 1 -300 -3 -330 -8z m530 -162 c22 -11 25
-19 28 -80 l3 -67 -281 0 -280 0 0 49 c0 106 11 110 290 110 154 1 222 -3 240
-12z"/>
<path d="M3080 2129 c-127 -22 -196 -79 -219 -179 -16 -68 -14 -338 3 -393 44
-148 149 -183 525 -174 231 5 286 16 348 70 64 56 77 100 81 279 4 138 2 166
-17 227 -16 53 -30 76 -60 104 -67 60 -115 70 -376 73 -126 1 -255 -2 -285 -7z
m444 -179 c72 -16 81 -34 84 -176 6 -208 6 -208 -253 -212 -207 -4 -255 3
-281 43 -31 48 -31 266 1 308 26 36 82 46 250 46 88 0 178 -4 199 -9z"/>
<path d="M4207 2130 c-116 -18 -194 -81 -218 -176 -6 -21 -13 -159 -15 -306
l-5 -268 105 0 106 0 1 238 c0 156 4 249 12 272 20 57 47 65 249 68 207 4 250
-4 278 -51 18 -29 20 -52 20 -279 l0 -248 106 0 105 0 -3 278 c-5 315 -10 345
-78 406 -65 59 -114 68 -375 72 -126 1 -256 -1 -288 -6z"/>
<path d="M5370 2134 c-136 -23 -194 -54 -230 -123 -52 -103 -52 -398 0 -501
25 -49 70 -83 140 -107 48 -16 89 -18 310 -18 216 0 264 3 312 18 124 38 167
113 175 302 9 202 -19 315 -91 370 -65 50 -111 57 -361 61 -126 1 -241 1 -255
-2z m448 -192 c38 -22 52 -71 52 -182 0 -190 -14 -200 -280 -200 -209 0 -242
8 -265 64 -20 47 -20 224 -1 270 25 60 50 65 286 63 131 -2 192 -6 208 -15z"/>
<path d="M7610 2129 c-114 -19 -187 -77 -215 -171 -12 -41 -15 -107 -15 -315
l0 -263 99 0 100 0 3 258 c3 230 5 260 22 284 23 35 69 48 174 48 l82 0 0 85
0 85 -97 -1 c-54 -1 -123 -5 -153 -10z"/>
<path d="M8195 2129 c-117 -19 -191 -74 -217 -161 -18 -60 -17 -358 1 -418 18
-63 82 -123 151 -145 42 -14 103 -19 261 -22 376 -9 481 26 525 174 17 55 19
325 3 393 -23 100 -98 159 -226 179 -82 13 -423 13 -498 0z m476 -188 c45 -23
54 -53 54 -185 0 -192 -5 -196 -282 -196 -268 0 -277 7 -271 216 5 182 9 184
288 181 130 -2 193 -6 211 -16z"/>
<path d="M9251 2125 c-81 -18 -126 -48 -154 -105 -19 -40 -22 -64 -25 -201 -4
-184 5 -228 57 -280 58 -58 82 -62 419 -66 l302 -4 0 -54 c0 -84 -2 -85 -201
-85 l-169 0 0 -86 0 -85 213 3 c203 3 214 4 262 28 39 20 55 35 75 75 24 48
25 56 28 295 7 425 -15 502 -161 557 -60 23 -552 29 -646 8z m575 -198 c23
-27 24 -35 24 -163 l0 -134 -255 0 c-291 0 -309 4 -321 65 -3 20 -4 76 -2 125
4 91 14 114 53 131 11 4 123 7 248 6 l229 -2 24 -28z"/>
<path d="M10680 2066 l0 -74 141 -4 c140 -3 141 -3 165 -31 16 -19 24 -40 24
-67 l0 -39 -342 -3 -343 -3 -45 -25 c-67 -37 -84 -80 -84 -206 0 -128 14 -156
99 -199 l60 -30 281 -3 c421 -5 493 11 549 123 l30 60 0 195 c0 193 0 195 -27
247 -52 98 -150 132 -375 133 l-133 0 0 -74z m328 -417 c-7 -123 -35 -133
-374 -127 -229 4 -234 6 -234 97 0 35 6 65 16 79 15 22 17 22 306 22 l290 0
-4 -71z"/>
<path d="M11495 2133 c-48 -10 -93 -37 -111 -66 -16 -26 -19 -51 -19 -142 0
-129 12 -165 64 -197 35 -22 47 -23 323 -28 157 -3 289 -8 292 -11 3 -3 9 -26
12 -50 5 -35 2 -49 -13 -67 l-18 -23 -333 1 -332 1 0 -86 0 -86 388 3 c364 3
389 4 426 23 72 36 81 59 81 198 0 142 -14 178 -80 212 -36 18 -66 20 -317 25
-152 3 -280 8 -284 13 -14 14 -9 108 7 118 8 5 74 9 147 9 l132 0 0 80 0 80
-172 -1 c-95 -1 -182 -3 -193 -6z"/>
<path d="M11163 1073 c-8 -3 -13 -24 -13 -54 l0 -50 58 3 57 3 3 38 c2 21 -2
45 -9 53 -11 13 -70 18 -96 7z"/>
<path d="M2650 823 c0 -216 2 -253 18 -283 21 -42 79 -67 134 -56 29 5 35 10
33 29 -1 12 -3 30 -4 40 -1 11 -9 17 -25 17 -54 0 -56 11 -56 266 l0 234 -50
0 -50 0 0 -247z"/>
<path d="M3580 988 l0 -83 -58 0 c-48 0 -68 -6 -107 -30 -62 -38 -88 -88 -93
-176 -8 -128 55 -205 175 -216 53 -5 169 9 181 22 8 8 13 451 6 513 l-5 52
-50 0 -49 0 0 -82z m-10 -287 c0 -110 -2 -120 -20 -126 -28 -9 -93 11 -107 34
-34 55 -22 155 24 190 16 13 41 21 64 21 l39 0 0 -119z"/>
<path d="M856 1037 c-56 -32 -78 -78 -73 -151 3 -53 7 -62 39 -92 20 -18 54
-38 76 -43 50 -14 106 -51 110 -75 16 -80 -54 -109 -194 -80 -30 6 -32 4 -42
-37 -13 -52 -12 -53 75 -69 163 -31 282 42 283 173 0 82 -38 127 -146 171 -69
28 -94 49 -94 79 0 42 31 59 97 54 32 -2 68 -7 79 -11 18 -6 23 -2 33 25 17
49 14 55 -28 67 -66 20 -170 15 -215 -11z"/>
<path d="M1887 1039 c-51 -27 -81 -92 -74 -157 8 -73 37 -100 152 -144 95 -37
111 -104 34 -144 -32 -16 -61 -16 -146 2 -30 6 -32 4 -44 -36 -15 -50 -11 -54
71 -71 138 -29 251 22 280 126 24 87 -9 160 -91 196 -121 54 -134 63 -137 92
-5 44 22 67 78 67 26 0 61 -5 79 -11 18 -6 34 -9 36 -7 2 2 7 22 11 45 6 41 6
41 -32 52 -65 18 -174 13 -217 -10z"/>
<path d="M12186 868 c4 -106 8 -195 10 -197 10 -11 86 -4 94 9 5 8 10 97 10
198 l0 182 -60 0 -61 0 7 -192z"/>
<path d="M6626 929 c-83 -112 -86 -119 -53 -119 25 0 25 0 29 -117 4 -122 20
-173 57 -189 38 -16 89 -23 124 -17 39 6 45 19 31 70 -5 18 -11 21 -34 16 -20
-4 -34 1 -49 16 -19 19 -21 33 -21 121 l0 100 28 0 c60 0 73 10 70 49 -3 35
-4 36 -50 39 l-48 3 0 60 c0 32 -4 59 -9 59 -4 0 -38 -41 -75 -91z"/>
<path d="M2288 899 c-29 -8 -38 -16 -38 -32 0 -44 15 -52 95 -52 78 0 95 -8
95 -47 0 -15 -9 -18 -52 -18 -103 -1 -168 -53 -168 -134 0 -107 96 -154 258
-126 l72 12 0 136 c0 165 -9 203 -56 238 -28 22 -47 27 -102 30 -37 2 -84 -2
-104 -7z m160 -268 c4 -50 -6 -61 -55 -61 -34 0 -73 29 -73 53 0 17 21 43 40
50 8 3 31 5 50 4 34 -2 35 -3 38 -46z"/>
<path d="M4475 901 c-74 -19 -114 -76 -101 -145 8 -43 29 -61 101 -89 73 -28
89 -51 56 -78 -26 -21 -75 -25 -118 -8 -23 8 -30 7 -40 -7 -7 -10 -13 -30 -13
-45 0 -32 18 -39 113 -39 117 0 177 48 177 141 0 34 -6 47 -33 73 -18 17 -54
37 -80 44 -52 13 -67 33 -46 58 11 13 26 15 75 11 50 -5 63 -3 68 9 10 27 6
62 -7 67 -28 10 -123 16 -152 8z"/>
<path d="M5075 898 c-11 -6 -30 -19 -41 -30 -21 -19 -22 -19 -28 6 -6 23 -12
26 -46 26 l-40 0 0 -205 0 -205 55 0 55 0 0 131 c0 163 11 189 77 189 22 0 36
-6 43 -19 5 -11 10 -83 10 -160 l0 -141 55 0 55 0 -1 148 c-1 174 -11 217 -58
249 -37 25 -102 30 -136 11z"/>
<path d="M6319 901 c-84 -26 -122 -100 -88 -174 11 -25 70 -59 121 -71 34 -8
55 -41 38 -61 -18 -21 -75 -29 -122 -17 -23 6 -44 9 -46 7 -2 -2 -6 -21 -9
-43 -5 -35 -3 -40 18 -45 42 -12 149 -7 182 7 18 7 46 28 61 47 25 29 28 39
23 82 -5 60 -33 90 -101 110 -54 15 -73 34 -62 62 5 15 16 17 76 13 74 -6 80
-2 80 47 0 20 -7 25 -50 34 -58 12 -84 13 -121 2z"/>
<path d="M7283 900 c-122 -38 -164 -251 -72 -363 51 -62 176 -74 250 -24 53
36 74 89 74 182 -1 98 -28 156 -88 187 -46 23 -120 31 -164 18z m102 -86 c41
-16 61 -146 32 -204 -28 -55 -96 -58 -128 -6 -34 56 -19 192 23 209 19 8 54 8
73 1z"/>
<path d="M7908 901 c-107 -35 -161 -158 -124 -283 28 -97 111 -146 225 -135
66 7 75 15 67 62 l-7 37 -49 -6 c-67 -9 -114 11 -129 54 -25 74 -3 162 46 181
16 6 49 8 76 4 50 -6 50 -6 61 46 4 20 1 29 -11 33 -29 12 -127 16 -155 7z"/>
<path d="M8259 900 c-76 -23 -129 -104 -129 -199 0 -146 69 -221 202 -221 121
0 198 128 168 276 -24 112 -132 177 -241 144z m101 -90 c37 -20 52 -132 25
-195 -25 -61 -94 -67 -131 -11 -12 20 -15 43 -12 102 3 65 7 79 27 95 26 21
62 24 91 9z"/>
<path d="M8743 890 c-18 -11 -33 -24 -33 -30 0 -5 -4 -10 -10 -10 -5 0 -10 12
-10 26 0 23 -3 25 -37 22 -21 -2 -37 -6 -35 -10 1 -5 2 -96 2 -203 l0 -195 50
0 50 0 0 131 c0 159 11 189 72 189 17 0 31 -7 38 -19 5 -11 10 -83 10 -160 l0
-141 55 0 55 0 0 138 c0 163 8 185 68 180 47 -4 50 -15 51 -185 l1 -133 50 0
50 0 0 160 c0 116 -4 170 -14 195 -34 81 -163 87 -220 10 -13 -18 -14 -18 -20
1 -16 51 -115 70 -173 34z"/>
<path d="M9440 899 c-14 -5 -35 -20 -47 -31 l-22 -21 -7 27 c-5 23 -11 26 -50
26 l-44 0 0 -300 0 -300 55 0 55 0 0 90 0 90 38 0 c59 0 135 27 164 57 40 42
58 94 58 171 0 77 -27 142 -71 175 -31 22 -95 31 -129 16z m51 -98 c22 -17 24
-27 24 -101 0 -78 -1 -83 -29 -106 -21 -19 -38 -24 -65 -22 l-36 3 -3 98 c-3
92 -1 98 22 122 30 30 56 32 87 6z"/>
<path d="M10135 902 c-90 -32 -130 -97 -130 -212 0 -126 54 -194 163 -207 136
-16 223 81 209 234 -7 75 -38 136 -82 163 -34 21 -127 34 -160 22z m105 -102
c26 -26 33 -59 28 -131 -5 -71 -29 -102 -78 -102 -44 0 -69 29 -77 90 -11 101
18 163 77 163 17 0 39 -9 50 -20z"/>
<path d="M10640 903 c-8 -3 -27 -16 -41 -30 l-26 -24 -7 25 c-5 22 -12 26 -41
26 l-35 0 0 -205 0 -205 49 0 49 0 4 139 c4 154 14 181 68 181 48 0 55 -20 58
-177 l4 -143 49 0 49 0 0 124 c0 67 5 138 11 155 20 57 91 62 104 8 3 -12 6
-80 8 -152 l2 -130 50 0 50 0 3 110 c7 238 -15 294 -120 303 -51 4 -58 2 -92
-29 -35 -30 -39 -31 -48 -15 -19 34 -102 56 -148 39z"/>
<path d="M11458 898 c-56 -15 -88 -58 -88 -118 0 -63 19 -85 100 -114 54 -20
66 -28 68 -48 5 -38 -44 -55 -112 -41 -28 6 -55 8 -59 4 -4 -4 -10 -24 -13
-43 -6 -33 -4 -35 26 -42 59 -11 151 -6 186 10 40 19 72 59 75 95 7 83 -19
118 -106 144 -55 16 -74 37 -53 62 10 12 27 14 75 10 69 -5 68 -6 77 39 6 27
4 32 -16 37 -51 13 -125 15 -160 5z"/>
<path d="M11837 896 c-67 -25 -98 -64 -117 -151 -24 -109 31 -227 118 -253
142 -43 253 41 253 191 0 100 -32 171 -90 202 -43 22 -120 27 -164 11z m125
-107 c22 -29 28 -98 15 -161 -13 -65 -97 -86 -131 -34 -34 53 -29 164 11 208
25 28 80 21 105 -13z"/>
<path d="M566 884 c-3 -9 -6 -28 -6 -44 0 -53 8 -60 66 -60 l54 0 0 60 0 60
-54 0 c-40 0 -55 -4 -60 -16z"/>
<path d="M1200 780 c0 -155 12 -212 55 -255 28 -27 44 -34 94 -40 35 -4 90 -2
131 5 l70 12 0 199 0 199 -55 0 -55 0 0 -165 0 -165 -29 0 c-85 0 -101 33
-101 213 l0 117 -55 0 -55 0 0 -120z"/>
<path d="M2890 753 c0 -129 3 -152 21 -190 12 -24 33 -50 48 -58 44 -22 122
-28 200 -15 l71 12 0 199 0 199 -50 0 -50 0 -2 -162 -3 -163 -36 -3 c-76 -6
-98 44 -99 221 l0 107 -50 0 -50 0 0 -147z"/>
<path d="M4026 874 c-116 -79 -113 -304 5 -364 54 -28 122 -35 192 -20 61 12
67 22 47 74 -8 23 -12 24 -42 15 -18 -5 -54 -9 -81 -9 -38 0 -53 5 -72 25 -14
13 -25 33 -25 45 0 19 6 20 131 20 l132 0 -6 59 c-10 119 -74 181 -184 181
-46 0 -66 -5 -97 -26z m140 -62 c13 -8 34 -46 34 -61 0 -7 -30 -11 -80 -11
-44 0 -80 2 -80 5 0 14 31 64 42 68 20 8 72 8 84 -1z"/>
<path d="M5352 747 c4 -165 14 -198 68 -238 35 -26 123 -34 208 -19 l72 12 0
199 0 199 -55 0 -55 0 0 -165 0 -165 -36 0 c-79 0 -94 32 -94 206 l0 124 -56
0 -56 0 4 -153z"/>
<path d="M5895 889 c-86 -50 -127 -149 -105 -255 15 -71 65 -127 130 -144 48
-13 137 -9 182 8 24 10 26 14 18 47 -11 47 -11 47 -49 34 -18 -6 -57 -9 -88
-7 -44 4 -59 10 -74 29 -10 13 -19 32 -19 42 0 15 13 17 130 17 l130 0 0 53
c0 62 -31 131 -73 161 -33 24 -150 34 -182 15z m115 -79 c10 -5 23 -23 28 -40
l11 -30 -80 0 c-67 0 -79 2 -79 17 0 46 72 78 120 53z"/>
<path d="M6890 695 l0 -205 54 0 54 0 4 136 c3 129 4 137 27 155 13 10 38 19
57 19 28 0 35 5 40 25 3 14 3 36 0 50 -9 37 -64 35 -109 -5 l-35 -30 -6 30
c-5 27 -9 30 -46 30 l-40 0 0 -205z"/>
<path d="M9730 695 l0 -205 55 0 55 0 0 121 c0 152 17 188 87 189 26 0 34 5
39 25 3 14 3 36 0 50 -9 37 -64 35 -109 -5 l-35 -30 -6 30 c-5 27 -9 30 -46
30 l-40 0 0 -205z"/>
<path d="M11117 893 c-4 -3 -7 -24 -7 -45 0 -36 2 -38 30 -38 l30 0 0 -160 0
-160 24 -6 c13 -3 35 -4 47 -2 l24 3 3 208 2 207 -73 0 c-41 0 -77 -3 -80 -7z"/>
<path d="M570 623 c0 -54 -3 -142 -7 -195 l-6 -98 62 0 61 0 -2 193 -3 192
-52 3 -53 3 0 -98z"/>
<path d="M12187 604 c-4 -4 -7 -31 -7 -59 0 -50 1 -53 30 -58 17 -4 44 -4 60
0 31 6 31 6 28 62 l-3 56 -50 3 c-28 2 -54 0 -58 -4z"/>
</g>
</svg>
