<?xml version="1.0" standalone="no"?>
<!DOCTYPE svg PUBLIC "-//W3C//DTD SVG 20010904//EN"
 "http://www.w3.org/TR/2001/REC-SVG-20010904/DTD/svg10.dtd">
<svg version="1.0" xmlns="http://www.w3.org/2000/svg"
 width="1277.000000pt" height="897.000000pt" viewBox="0 0 1277.000000 897.000000"
 preserveAspectRatio="xMidYMid meet">

<g transform="translate(0.000000,897.000000) scale(0.100000,-0.100000)"
fill="#000000" stroke="none">
<path d="M6200 7943 c-787 -57 -1484 -297 -1970 -677 -92 -71 -200 -170 -200
-182 0 -6 185 88 251 127 146 87 443 228 559 267 356 117 706 172 1091 172
549 0 1053 -123 1534 -374 954 -498 1630 -1444 1797 -2513 20 -131 23 -183 22
-448 0 -261 -3 -318 -22 -435 -106 -646 -378 -1185 -822 -1631 -229 -231 -424
-376 -703 -523 -279 -148 -599 -250 -942 -302 -116 -18 -561 -29 -650 -17
l-60 8 4 830 c3 844 -5 1165 -33 1245 -32 95 -134 210 -224 255 -55 28 -142
37 -189 22 -27 -10 -38 -72 -54 -312 -14 -207 -17 -1634 -4 -2317 l7 -428 37
-11 c518 -154 1128 -136 1750 51 217 66 414 144 636 255 584 289 1015 654
1372 1163 374 533 593 1123 659 1776 20 202 15 619 -10 805 -93 693 -357 1324
-770 1841 -548 686 -1348 1162 -2192 1305 -261 45 -640 65 -874 48z"/>
<path d="M5560 7514 c-716 -78 -1370 -385 -1884 -884 -472 -459 -767 -992
-896 -1619 -58 -286 -77 -710 -45 -1032 74 -747 360 -1473 798 -2024 100 -125
284 -313 392 -399 346 -278 744 -539 985 -647 164 -73 406 -149 478 -149 l23
0 -1 1467 c-2 1064 1 1481 9 1517 22 92 67 153 145 194 45 24 62 27 147 27 89
0 99 -2 164 -35 82 -42 209 -158 300 -275 34 -44 118 -163 187 -265 68 -102
283 -407 477 -677 l353 -493 397 -1 c218 -1 442 -3 499 -5 79 -2 104 1 108 11
10 24 -102 200 -324 509 -80 112 -144 196 -768 1026 -375 498 -555 752 -629
887 l-29 51 49 59 c49 58 452 463 938 943 446 440 627 630 627 658 0 4 -226 7
-503 7 -449 0 -505 -2 -532 -17 -29 -15 -61 -47 -221 -217 -38 -40 -94 -97
-124 -125 -120 -110 -311 -306 -680 -696 -421 -444 -581 -610 -589 -610 -3 0
-4 373 -3 830 l4 830 -115 0 c-167 0 -360 -18 -452 -41 -213 -54 -288 -168
-310 -469 -6 -89 0 -686 26 -2280 9 -618 3 -1193 -17 -1422 l-7 -77 -60 42
c-364 254 -753 910 -906 1529 -33 134 -61 284 -61 329 l0 29 285 0 c320 0 333
2 381 66 l29 37 0 258 c0 246 -1 259 -21 286 -11 15 -36 38 -54 51 -32 22 -39
22 -321 22 l-288 0 5 33 c85 465 263 884 529 1243 595 802 1482 1228 2480
1190 582 -22 965 -168 1635 -624 170 -115 171 -107 7 52 -218 210 -392 343
-636 485 -394 229 -818 367 -1278 416 -171 18 -532 18 -703 -1z"/>
</g>
</svg>
